<svg xmlns="http://www.w3.org/2000/svg" xmlns:xlink="http://www.w3.org/1999/xlink" version="1.1" x="0px" y="0px" viewBox="0 0 44 55" style="enable-background:new 0 0 44 44;" xml:space="preserve" width="100" height="100"><g><g><path d="M41,20h-2h-9v-5h3c0.6,0,1-0.4,1-1h1c0.4,0,0.7-0.2,0.9-0.6l0.1-0.2c0.7-1.3,1-2.8,1-4.2c0-3.9-3.1-7-7-7H10    C6.1,2,3,5.1,3,9v2c0,1.4,0.9,2.5,2.2,2.9C5.7,16.2,6,18.7,6,21.1c0,3.1-0.4,6.3-1.2,9.3L3.2,36H3c-1.7,0-3,1.3-3,3s1.3,3,3,3h36    c1.7,0,3-1.3,3-3s-1.3-3-3-3h-2.4c1.3-1.1,2.3-2.5,2.9-4.2c0,0,0,0,0.1,0L42,30c1.3-0.9,2-2.4,2-4v-3C44,21.3,42.7,20,41,20z     M28,20h-2v-5h2V20z M19,20c-0.6,0-1,0.4-1,1v8c0,2.8,1.3,5.3,3.4,7h-6.6c-0.5-1.7-0.8-3.4-0.8-5.2V15c0-0.6,0.4-1,1-1h9v6H19z     M5,9c0-2.8,2.2-5,5-5h20c2.8,0,5,2.2,5,5c0,1-0.2,2.1-0.6,3H6c-0.6,0-1-0.4-1-1V9z M6.7,31C7.6,27.8,8,24.4,8,21.1    c0-2.4-0.3-4.8-0.8-7.1h4.9c-0.1,0.3-0.2,0.6-0.2,1v15.8c0,1.7,0.2,3.5,0.7,5.2H5.3L6.7,31z M39,38c0.6,0,1,0.4,1,1s-0.4,1-1,1H3    c-0.6,0-1-0.4-1-1s0.4-1,1-1h24h4H39z M38,29c0,3.9-3.1,7-7,7h-4c-3.9,0-7-3.1-7-7v-7h5h4h9V29z M42,26c0,0.9-0.4,1.8-1.2,2.4    L40,29c0,0,0,0,0,0v-7h1c0.6,0,1,0.4,1,1V26z"/><circle cx="13" cy="9" r="1"/><circle cx="17" cy="9" r="1"/><circle cx="9" cy="9" r="1"/></g></g><text x="0" y="59" fill="#000000" font-size="5px" font-weight="bold" font-family="'Helvetica Neue', Helvetica, Arial-Unicode, Arial, Sans-serif">Created by Dmitry Mirolyubov</text><text x="0" y="64" fill="#000000" font-size="5px" font-weight="bold" font-family="'Helvetica Neue', Helvetica, Arial-Unicode, Arial, Sans-serif">from the Noun Project</text></svg>